<svg width="264" height="123" viewBox="0 0 264 123" fill="none" xmlns="http://www.w3.org/2000/svg">
<path d="M43.0006 53.4414C41.5805 53.4414 40.4831 53.0554 39.7085 52.2834C38.9339 51.4792 38.5466 50.3694 38.5466 48.9541V26.228H30.9458C29.7517 26.228 28.8318 25.9224 28.1863 25.3112C27.5731 24.6679 27.2665 23.7672 27.2665 22.6092C27.2665 21.419 27.5731 20.5183 28.1863 19.9072C28.8318 19.296 29.7517 18.9904 30.9458 18.9904H55.0553C56.2495 18.9904 57.1532 19.296 57.7664 19.9072C58.412 20.5183 58.7347 21.419 58.7347 22.6092C58.7347 23.7672 58.412 24.6679 57.7664 25.3112C57.1532 25.9224 56.2495 26.228 55.0553 26.228H47.4545V48.9541C47.4545 50.3694 47.0834 51.4792 46.341 52.2834C45.5987 53.0554 44.4852 53.4414 43.0006 53.4414ZM71.2036 53.4414C69.7835 53.4414 68.6861 53.0554 67.9115 52.2834C67.1369 51.4792 66.7496 50.3533 66.7496 48.9058V23.0917C66.7496 21.6121 67.1369 20.4862 67.9115 19.7142C68.6861 18.9422 69.7835 18.5562 71.2036 18.5562C72.656 18.5562 73.7533 18.9422 74.4957 19.7142C75.2702 20.4862 75.6575 21.6121 75.6575 23.0917V32.1146H89.7456V23.0917C89.7456 21.6121 90.1165 20.4862 90.8591 19.7142C91.6337 18.9422 92.7471 18.5562 94.1995 18.5562C95.6199 18.5562 96.7006 18.9422 97.4432 19.7142C98.2178 20.4862 98.6051 21.6121 98.6051 23.0917V48.9058C98.6051 50.3533 98.2178 51.4792 97.4432 52.2834C96.7006 53.0554 95.6199 53.4414 94.1995 53.4414C92.7471 53.4414 91.6337 53.0554 90.8591 52.2834C90.1165 51.4792 89.7456 50.3533 89.7456 48.9058V39.4004H75.6575V48.9058C75.6575 50.3533 75.2866 51.4792 74.5441 52.2834C73.8017 53.0554 72.6882 53.4414 71.2036 53.4414ZM114.346 53.4414C112.926 53.4414 111.828 53.0554 111.054 52.2834C110.279 51.4792 109.892 50.3694 109.892 48.9541V23.4777C109.892 22.0302 110.279 20.9204 111.054 20.1484C111.86 19.3764 112.974 18.9904 114.394 18.9904H126.304C130.177 18.9904 133.162 19.9393 135.26 21.8372C137.39 23.7029 138.455 26.3084 138.455 29.6538C138.455 31.809 137.971 33.6908 137.003 35.2991C136.067 36.8753 134.695 38.0977 132.888 38.9662C131.112 39.8026 128.918 40.2207 126.304 40.2207L126.691 39.3522H129.015C130.402 39.3522 131.629 39.6899 132.694 40.3655C133.759 41.0088 134.646 42.006 135.357 43.357L137.778 47.6996C138.294 48.6324 138.536 49.5492 138.504 50.4498C138.471 51.3184 138.116 52.0421 137.439 52.6211C136.793 53.168 135.841 53.4414 134.582 53.4414C133.324 53.4414 132.291 53.184 131.484 52.6694C130.709 52.1547 130.015 51.3505 129.402 50.2568L124.997 42.199C124.609 41.4913 124.109 41.0088 123.496 40.7515C122.915 40.462 122.237 40.3172 121.463 40.3172H118.8V48.9541C118.8 50.3694 118.428 51.4792 117.686 52.2834C116.944 53.0554 115.83 53.4414 114.346 53.4414ZM118.8 34.0446H124.706C126.416 34.0446 127.723 33.7069 128.628 33.0314C129.531 32.3558 129.983 31.3104 129.983 29.8951C129.983 28.544 129.531 27.5308 128.628 26.8553C127.723 26.1476 126.416 25.7938 124.706 25.7938H118.8V34.0446ZM153.611 53.4414C152.191 53.4414 151.093 53.0554 150.319 52.2834C149.544 51.4792 149.157 50.3533 149.157 48.9058V23.0917C149.157 21.6121 149.544 20.4862 150.319 19.7142C151.093 18.9422 152.191 18.5562 153.611 18.5562C155.063 18.5562 156.161 18.9422 156.903 19.7142C157.677 20.4862 158.065 21.6121 158.065 23.0917V48.9058C158.065 50.3533 157.694 51.4792 156.951 52.2834C156.209 53.0554 155.096 53.4414 153.611 53.4414ZM173.824 53.4414C172.405 53.4414 171.291 53.0554 170.484 52.2834C169.709 51.4792 169.322 50.3372 169.322 48.8576V23.5742C169.322 22.0946 169.709 20.9687 170.484 20.1967C171.291 19.3925 172.453 18.9904 173.969 18.9904H190.091C191.253 18.9904 192.124 19.2799 192.705 19.8589C193.286 20.4379 193.576 21.2743 193.576 22.368C193.576 23.4938 193.286 24.3623 192.705 24.9735C192.124 25.5525 191.253 25.842 190.091 25.842H178.23V32.6936H189.026C190.156 32.6936 191.011 32.9831 191.592 33.5621C192.205 34.1411 192.511 34.9775 192.511 36.0711C192.511 37.197 192.205 38.0494 191.592 38.6284C191.011 39.2074 190.156 39.4969 189.026 39.4969H178.23V48.8576C178.23 51.9135 176.762 53.4414 173.824 53.4414ZM215.688 53.4414C214.268 53.4414 213.17 53.0554 212.396 52.2834C211.621 51.4792 211.234 50.3694 211.234 48.9541V26.228H203.633C202.439 26.228 201.519 25.9224 200.873 25.3112C200.26 24.6679 199.954 23.7672 199.954 22.6092C199.954 21.419 200.26 20.5183 200.873 19.9072C201.519 19.296 202.439 18.9904 203.633 18.9904H227.742C228.937 18.9904 229.841 19.296 230.453 19.9072C231.099 20.5183 231.422 21.419 231.422 22.6092C231.422 23.7672 231.099 24.6679 230.453 25.3112C229.841 25.9224 228.937 26.228 227.742 26.228H220.142V48.9541C220.142 50.3694 219.771 51.4792 219.028 52.2834C218.286 53.0554 217.173 53.4414 215.688 53.4414Z" fill="white"/>
<path d="M131.789 99.4652C130.369 99.4652 129.272 99.0792 128.497 98.3072C127.723 97.5032 127.335 96.3771 127.335 94.9296V69.1155C127.335 67.6359 127.723 66.51 128.497 65.738C129.272 64.966 130.369 64.58 131.789 64.58C133.242 64.58 134.339 64.966 135.081 65.738C135.856 66.51 136.243 67.6359 136.243 69.1155V78.1384H150.331V69.1155C150.331 67.6359 150.702 66.51 151.445 65.738C152.22 64.966 153.333 64.58 154.785 64.58C156.206 64.58 157.286 64.966 158.029 65.738C158.804 66.51 159.191 67.6359 159.191 69.1155V94.9296C159.191 96.3771 158.804 97.5032 158.029 98.3072C157.286 99.0792 156.206 99.4652 154.785 99.4652C153.333 99.4652 152.22 99.0792 151.445 98.3072C150.702 97.5032 150.331 96.3771 150.331 94.9296V85.4242H136.243V94.9296C136.243 96.3771 135.872 97.5032 135.13 98.3072C134.387 99.0792 133.274 99.4652 131.789 99.4652ZM181.467 99.5617C178.982 99.5617 176.787 99.2559 174.883 98.6449C172.979 98.0013 171.365 97.0527 170.042 95.7981C168.751 94.5436 167.767 92.9833 167.089 91.1178C166.443 89.2197 166.121 87.0328 166.121 84.5557V69.0673C166.121 67.5876 166.508 66.4778 167.283 65.738C168.057 64.966 169.154 64.58 170.575 64.58C172.027 64.58 173.124 64.966 173.867 65.738C174.641 66.4778 175.029 67.5876 175.029 69.0673V84.6522C175.029 87.1293 175.577 88.9948 176.675 90.2493C177.772 91.5038 179.369 92.1311 181.467 92.1311C183.533 92.1311 185.114 91.5038 186.212 90.2493C187.309 88.9948 187.858 87.1293 187.858 84.6522V69.0673C187.858 67.5876 188.229 66.4778 188.971 65.738C189.746 64.966 190.843 64.58 192.263 64.58C193.683 64.58 194.765 64.966 195.507 65.738C196.249 66.4778 196.621 67.5876 196.621 69.0673V84.5557C196.621 87.8687 196.04 90.6517 194.878 92.9031C193.748 95.1226 192.053 96.7951 189.794 97.9212C187.535 99.0146 184.76 99.5617 181.467 99.5617ZM208.193 99.0309C206.676 99.0309 205.514 98.6449 204.708 97.8729C203.933 97.069 203.546 95.9266 203.546 94.4471V69.598C203.546 68.1184 203.933 66.9925 204.708 66.2205C205.514 65.4163 206.676 65.0142 208.193 65.0142H220.006C222.459 65.0142 224.541 65.3841 226.251 66.124C227.994 66.8316 229.317 67.8449 230.221 69.1638C231.125 70.4826 231.577 72.0267 231.577 73.7958C231.577 75.7904 230.996 77.4948 229.834 78.9104C228.704 80.326 227.155 81.291 225.186 81.8054V81.0334C227.51 81.4514 229.301 82.3845 230.56 83.832C231.851 85.2795 232.497 87.1294 232.497 89.3808C232.497 92.3723 231.415 94.7366 229.253 96.4736C227.123 98.1787 224.202 99.0309 220.49 99.0309H208.193ZM212.066 92.5171H219.28C220.926 92.5171 222.12 92.2113 222.862 91.6003C223.637 90.9567 224.024 90.0081 224.024 88.7535C224.024 87.499 223.637 86.5659 222.862 85.955C222.12 85.3441 220.926 85.0382 219.28 85.0382H212.066V92.5171ZM212.066 78.5244H218.409C220.022 78.5244 221.2 78.2349 221.943 77.6559C222.717 77.0769 223.105 76.192 223.105 75.0021C223.105 73.8119 222.717 72.9434 221.943 72.3966C221.2 71.8176 220.022 71.5281 218.409 71.5281H212.066V78.5244Z" fill="#9852C3"/>
<path d="M128.497 98.3072L127.96 98.8216L127.965 98.8268L127.971 98.832L128.497 98.3072ZM135.081 65.738L134.544 66.2516L134.549 66.2573L134.555 66.2629L135.081 65.738ZM136.243 78.1384H135.498V78.8807H136.243V78.1384ZM150.331 78.1384V78.8807H151.076V78.1384H150.331ZM151.445 65.738L150.918 65.2131L150.912 65.2187L150.907 65.2244L151.445 65.738ZM158.029 65.738L157.491 66.2516L157.496 66.2573L157.502 66.2629L158.029 65.738ZM158.029 98.3072L157.492 97.7928L157.491 97.7935L158.029 98.3072ZM151.445 98.3072L150.897 98.8097L150.907 98.8209L150.918 98.832L151.445 98.3072ZM150.331 85.4243H151.076V84.6819H150.331V85.4243ZM136.243 85.4243V84.6819H135.498V85.4243H136.243ZM135.13 98.3072L135.668 98.8209L135.673 98.8157L135.678 98.8097L135.13 98.3072ZM131.789 98.7229C130.506 98.7229 129.621 98.377 129.024 97.7824L127.971 98.832C128.923 99.7814 130.233 100.208 131.789 100.208V98.7229ZM129.034 97.7928C128.43 97.1648 128.08 96.245 128.08 94.9296H126.591C126.591 96.5093 127.016 97.841 127.96 98.8216L129.034 97.7928ZM128.08 94.9296V69.1155H126.591V94.9296H128.08ZM128.08 69.1155C128.08 67.7609 128.432 66.852 129.024 66.2629L127.971 65.2131C127.013 66.168 126.591 67.5108 126.591 69.1155H128.08ZM129.024 66.2629C129.621 65.6679 130.506 65.3223 131.789 65.3223V63.8376C130.233 63.8376 128.923 64.264 127.971 65.2131L129.024 66.2629ZM131.789 65.3223C133.113 65.3223 133.986 65.6717 134.544 66.2516L135.619 65.2244C134.692 64.2603 133.371 63.8376 131.789 63.8376V65.3223ZM134.555 66.2629C135.146 66.852 135.498 67.7609 135.498 69.1155H136.988C136.988 67.5108 136.566 66.168 135.608 65.2131L134.555 66.2629ZM135.498 69.1155V78.1384H136.988V69.1155H135.498ZM136.243 78.8807H150.331V77.3961H136.243V78.8807ZM151.076 78.1384V69.1155H149.587V78.1384H151.076ZM151.076 69.1155C151.076 67.7529 151.417 66.8397 151.983 66.2516L150.907 65.2244C149.988 66.1803 149.587 67.5188 149.587 69.1155H151.076ZM151.971 66.2629C152.566 65.6709 153.464 65.3223 154.785 65.3223V63.8376C153.202 63.8376 151.873 64.2611 150.918 65.2131L151.971 66.2629ZM154.785 65.3223C156.071 65.3223 156.93 65.6686 157.491 66.2516L158.567 65.2244C157.642 64.2634 156.34 63.8376 154.785 63.8376V65.3223ZM157.502 66.2629C158.094 66.852 158.446 67.7609 158.446 69.1155H159.936C159.936 67.5108 159.513 66.168 158.556 65.2131L157.502 66.2629ZM158.446 69.1155V94.9296H159.936V69.1155H158.446ZM158.446 94.9296C158.446 96.245 158.097 97.1648 157.492 97.7928L158.566 98.8216C159.51 97.841 159.936 96.5093 159.936 94.9296H158.446ZM157.491 97.7935C156.93 98.377 156.071 98.7229 154.785 98.7229V100.208C156.34 100.208 157.642 99.7814 158.567 98.8209L157.491 97.7935ZM154.785 98.7229C153.464 98.7229 152.566 98.374 151.971 97.7824L150.918 98.832C151.873 99.7844 153.202 100.208 154.785 100.208V98.7229ZM151.993 97.8046C151.414 97.1766 151.076 96.2524 151.076 94.9296H149.587C149.587 96.5019 149.992 97.8291 150.897 98.8097L151.993 97.8046ZM151.076 94.9296V85.4243H149.587V94.9296H151.076ZM150.331 84.6819H136.243V86.1666H150.331V84.6819ZM135.498 85.4243V94.9296H136.988V85.4243H135.498ZM135.498 94.9296C135.498 96.2524 135.161 97.1766 134.582 97.8046L135.678 98.8097C136.583 97.8291 136.988 96.5019 136.988 94.9296H135.498ZM134.592 97.7935C134.037 98.3703 133.151 98.7229 131.789 98.7229V100.208C133.397 100.208 134.737 99.7881 135.668 98.8209L134.592 97.7935ZM174.883 98.6449L174.644 99.3479L174.649 99.3501L174.655 99.3516L174.883 98.6449ZM170.042 95.7982L169.521 96.3296L169.528 96.3363L170.042 95.7982ZM167.089 91.1178L166.384 91.3561L166.386 91.3635L166.388 91.3702L167.089 91.1178ZM167.283 65.738L167.798 66.2739L167.803 66.2684L167.809 66.2629L167.283 65.738ZM173.867 65.738L173.329 66.2516L173.339 66.263L173.351 66.2739L173.867 65.738ZM195.507 65.738L194.969 66.2516L194.975 66.2573L194.98 66.2629L195.507 65.738ZM194.878 92.9031L194.215 92.5639L194.213 92.5676L194.878 92.9031ZM189.794 97.9212L190.12 98.5893L190.127 98.5848L189.794 97.9212ZM181.467 98.8194C179.042 98.8194 176.926 98.521 175.111 97.9383L174.655 99.3516C176.648 99.9915 178.922 100.304 181.467 100.304V98.8194ZM175.122 97.942C173.31 97.3296 171.792 96.4336 170.555 95.26L169.528 96.3363C170.937 97.6718 172.648 98.6739 174.644 99.3479L175.122 97.942ZM170.562 95.2667C169.359 94.0982 168.432 92.6366 167.789 90.8654L166.388 91.3702C167.1 93.3307 168.141 94.989 169.521 96.3296L170.562 95.2667ZM167.794 90.8795C167.18 89.0742 166.865 86.9698 166.865 84.5557H165.376C165.376 87.0952 165.706 89.366 166.384 91.3561L167.794 90.8795ZM166.865 84.5557V69.0673H165.376V84.5557H166.865ZM166.865 69.0673C166.865 67.7102 167.218 66.8268 167.798 66.2739L166.767 65.202C165.797 66.1288 165.376 67.4649 165.376 69.0673H166.865ZM167.809 66.2629C168.406 65.6679 169.291 65.3223 170.575 65.3223V63.8376C169.018 63.8376 167.708 64.264 166.756 65.2131L167.809 66.2629ZM170.575 65.3223C171.898 65.3223 172.771 65.6717 173.329 66.2516L174.404 65.2244C173.477 64.2603 172.155 63.8376 170.575 63.8376V65.3223ZM173.351 66.2739C173.93 66.8268 174.284 67.7102 174.284 69.0673H175.773C175.773 67.4649 175.352 66.1288 174.382 65.202L173.351 66.2739ZM174.284 69.0673V84.6522H175.773V69.0673H174.284ZM174.284 84.6522C174.284 87.2236 174.851 89.2947 176.113 90.737L177.235 89.7616C176.303 88.6949 175.773 87.0351 175.773 84.6522H174.284ZM176.113 90.737C177.387 92.1935 179.214 92.8734 181.467 92.8734V91.3888C179.525 91.3888 178.157 90.8142 177.235 89.7616L176.113 90.737ZM181.467 92.8734C183.693 92.8734 185.501 92.1905 186.773 90.737L185.65 89.7616C184.727 90.8172 183.373 91.3888 181.467 91.3888V92.8734ZM186.773 90.737C188.034 89.2947 188.603 87.2236 188.603 84.6522H187.113C187.113 87.0351 186.583 88.6949 185.65 89.7616L186.773 90.737ZM188.603 84.6522V69.0673H187.113V84.6522H188.603ZM188.603 69.0673C188.603 67.702 188.945 66.8144 189.498 66.2629L188.445 65.2131C187.513 66.1412 187.113 67.4732 187.113 69.0673H188.603ZM189.498 66.2629C190.095 65.6679 190.979 65.3223 192.263 65.3223V63.8376C190.707 63.8376 189.397 64.264 188.445 65.2131L189.498 66.2629ZM192.263 65.3223C193.549 65.3223 194.408 65.6686 194.969 66.2516L196.045 65.2244C195.121 64.2634 193.818 63.8376 192.263 63.8376V65.3223ZM194.98 66.2629C195.534 66.8144 195.876 67.702 195.876 69.0673H197.365C197.365 67.4732 196.965 66.1412 196.034 65.2131L194.98 66.2629ZM195.876 69.0673V84.5557H197.365V69.0673H195.876ZM195.876 84.5557C195.876 87.7863 195.309 90.4446 194.215 92.5639L195.54 93.2424C196.77 90.8588 197.365 87.9518 197.365 84.5557H195.876ZM194.213 92.5676C193.156 94.6431 191.579 96.202 189.461 97.2575L190.127 98.5848C192.528 97.3889 194.339 95.6022 195.541 93.2386L194.213 92.5676ZM189.469 97.2531C187.337 98.2849 184.68 98.8194 181.467 98.8194V100.304C184.838 100.304 187.733 99.7443 190.12 98.5893L189.469 97.2531ZM204.708 97.8729L204.17 98.3874L204.18 98.3978L204.192 98.4081L204.708 97.8729ZM226.251 66.124L225.955 66.8049L225.962 66.8083L225.97 66.8114L226.251 66.124ZM229.834 78.9104L229.257 78.4405L229.251 78.448L229.834 78.9104ZM225.186 81.8055H224.441V82.7675L225.375 82.5233L225.186 81.8055ZM225.186 81.0334L225.318 80.303L224.441 80.1449V81.0334H225.186ZM230.56 83.832L229.997 84.3182L230.003 84.3249L230.56 83.832ZM229.253 96.4737L229.719 97.0527L229.72 97.0519L229.253 96.4737ZM212.066 92.5171H211.322V93.2594H212.066V92.5171ZM222.862 91.6003L223.337 92.1727L223.339 92.1704L222.862 91.6003ZM222.862 85.955L222.388 86.5273L222.394 86.5325L222.4 86.537L222.862 85.955ZM212.066 85.0383V84.2959H211.322V85.0383H212.066ZM212.066 78.5244H211.322V79.2667H212.066V78.5244ZM221.943 77.6559L221.496 77.062L221.489 77.0665L221.483 77.071L221.943 77.6559ZM221.943 72.3966L221.483 72.9812L221.497 72.9921L221.512 73.0023L221.943 72.3966ZM212.066 71.5281V70.7857H211.322V71.5281H212.066ZM208.193 98.2886C206.798 98.2886 205.848 97.9353 205.223 97.3377L204.192 98.4081C205.181 99.3546 206.554 99.7733 208.193 99.7733V98.2886ZM205.245 97.3585C204.642 96.7335 204.291 95.7996 204.291 94.4471H202.801C202.801 96.0542 203.223 97.4045 204.17 98.3874L205.245 97.3585ZM204.291 94.4471V69.598H202.801V94.4471H204.291ZM204.291 69.598C204.291 68.2434 204.643 67.3345 205.234 66.7454L204.181 65.6956C203.223 66.6505 202.801 67.9933 202.801 69.598H204.291ZM205.234 66.7454C205.86 66.1216 206.807 65.7565 208.193 65.7565V64.2719C206.546 64.2719 205.169 64.7111 204.181 65.6956L205.234 66.7454ZM208.193 65.7565H220.006V64.2719H208.193V65.7565ZM220.006 65.7565C222.387 65.7565 224.362 66.1162 225.955 66.8049L226.548 65.4431C224.719 64.6521 222.53 64.2719 220.006 64.2719V65.7565ZM225.97 66.8114C227.602 67.4739 228.798 68.4037 229.606 69.5824L230.836 68.7451C229.836 67.2862 228.386 66.1894 226.532 65.4365L225.97 66.8114ZM229.606 69.5824C230.416 70.7647 230.832 72.1593 230.832 73.7958H232.322C232.322 71.894 231.833 70.2005 230.836 68.7451L229.606 69.5824ZM230.832 73.7958C230.832 75.6353 230.3 77.1697 229.257 78.4405L230.41 79.3803C231.691 77.82 232.322 75.9449 232.322 73.7958H230.832ZM229.251 78.448C228.233 79.7233 226.83 80.6081 224.997 81.0876L225.375 82.5233C227.479 81.9732 229.175 80.9288 230.416 79.3729L229.251 78.448ZM225.931 81.8055V81.0334H224.441V81.8055H225.931ZM225.054 81.7639C227.249 82.1588 228.873 83.0258 229.997 84.3182L231.122 83.3458C229.729 81.7431 227.77 80.7439 225.318 80.303L225.054 81.7639ZM230.003 84.3249C231.154 85.615 231.752 87.2793 231.752 89.3808H233.241C233.241 86.9787 232.548 84.944 231.116 83.3391L230.003 84.3249ZM231.752 89.3808C231.752 92.1682 230.757 94.312 228.785 95.8954L229.72 97.0519C232.073 95.1612 233.241 92.5765 233.241 89.3808H231.752ZM228.787 95.8946C226.829 97.4617 224.093 98.2886 220.49 98.2886V99.7733C224.31 99.7733 227.416 98.8958 229.719 97.0527L228.787 95.8946ZM220.49 98.2886H208.193V99.7733H220.49V98.2886ZM212.066 93.2594H219.28V91.7748H212.066V93.2594ZM219.28 93.2594C220.987 93.2594 222.395 92.9484 223.337 92.1727L222.388 91.028C221.845 91.4749 220.864 91.7748 219.28 91.7748V93.2594ZM223.339 92.1704C224.324 91.3524 224.769 90.1692 224.769 88.7536H223.28C223.28 89.847 222.949 90.5618 222.385 91.0302L223.339 92.1704ZM224.769 88.7536C224.769 87.3402 224.324 86.1621 223.324 85.373L222.4 86.537C222.949 86.9698 223.28 87.6579 223.28 88.7536H224.769ZM223.337 85.3827C222.395 84.607 220.987 84.2959 219.28 84.2959V85.7806C220.864 85.7806 221.845 86.0805 222.388 86.5273L223.337 85.3827ZM219.28 84.2959H212.066V85.7806H219.28V84.2959ZM211.322 85.0383V92.5171H212.811V85.0383H211.322ZM212.066 79.2667H218.408V77.7821H212.066V79.2667ZM218.408 79.2667C220.081 79.2667 221.463 78.972 222.401 78.2408L221.483 77.071C220.937 77.4978 219.963 77.7821 218.408 77.7821V79.2667ZM222.389 78.2498C223.395 77.4978 223.849 76.365 223.849 75.0021H222.36C222.36 76.0191 222.039 76.656 221.496 77.062L222.389 78.2498ZM223.849 75.0021C223.849 73.6406 223.396 72.5127 222.373 71.7908L221.512 73.0023C222.039 73.3742 222.36 73.9832 222.36 75.0021H223.849ZM222.401 71.812C221.463 71.0802 220.081 70.7857 218.408 70.7857V72.2704C219.963 72.2704 220.937 72.5549 221.483 72.9812L222.401 71.812ZM218.408 70.7857H212.066V72.2704H218.408V70.7857ZM211.322 71.5281V78.5244H212.811V71.5281H211.322Z" fill="#9852C3"/>
<path d="M35.6047 68.5959C35.6047 65.7261 37.939 63.3997 40.8184 63.3997H102.67C104.501 63.3997 106.199 64.3578 107.141 65.9234L115.181 79.2853C116.171 80.9302 116.171 82.985 115.181 84.6299L107.141 97.9917C106.199 99.5572 104.501 100.516 102.67 100.516H40.8184C37.939 100.516 35.6047 98.1891 35.6047 95.3193V68.5959Z" fill="#9852C4"/>
<path d="M97.0515 88.6385C100.959 88.6385 104.127 85.4812 104.127 81.5864C104.127 77.6917 100.959 74.5344 97.0515 74.5344C93.1437 74.5344 89.9758 77.6917 89.9758 81.5864C89.9758 85.4812 93.1437 88.6385 97.0515 88.6385Z" fill="white"/>
<path d="M74.3727 94.4552C73.8112 94.4552 73.3367 94.2622 72.9494 93.8762C72.5621 93.4902 72.3685 93.0077 72.3685 92.4287V90.2864L73.2399 91.068C71.9424 91.0101 70.8193 90.8461 69.8704 90.5759C68.9215 90.3057 68.1469 90.0354 67.5466 89.7652C67.0431 89.5336 66.6848 89.2055 66.4718 88.7809C66.2782 88.3563 66.2007 87.9221 66.2394 87.4782C66.2975 87.0343 66.4621 86.629 66.7332 86.2622C67.0043 85.8955 67.3529 85.6543 67.7789 85.5385C68.2243 85.4034 68.7375 85.4613 69.3185 85.7122C69.7058 85.9245 70.2867 86.1464 71.0613 86.378C71.8553 86.5904 72.8332 86.6965 73.9951 86.6965C74.8085 86.6965 75.4475 86.6193 75.9123 86.4649C76.3964 86.3105 76.7353 86.1078 76.9289 85.8569C77.1419 85.5867 77.2485 85.2972 77.2485 84.9884C77.2485 84.6989 77.171 84.4577 77.0161 84.2647C76.8805 84.0524 76.6481 83.869 76.3189 83.7146C75.9897 83.5409 75.5346 83.3865 74.9537 83.2514L71.6713 82.5566C69.8704 82.1513 68.5245 81.4758 67.6337 80.5301C66.7623 79.5651 66.3266 78.3202 66.3266 76.7955C66.3266 75.6374 66.6074 74.6049 67.1689 73.6978C67.7499 72.7714 68.5535 72.0187 69.5799 71.4396C70.6256 70.8606 71.8456 70.4939 73.2399 70.3395L72.3685 70.8317V68.892C72.3685 68.313 72.5621 67.8305 72.9494 67.4445C73.3367 67.0585 73.8112 66.8655 74.3727 66.8655C74.9537 66.8655 75.4378 67.0585 75.8251 67.4445C76.2124 67.8305 76.4061 68.313 76.4061 68.892V70.8317L75.5346 70.2816C76.2705 70.3009 77.0645 70.4264 77.9165 70.658C78.7686 70.8703 79.5142 71.1694 80.1532 71.5554C80.5986 71.787 80.9084 72.1055 81.0827 72.5108C81.2764 72.9161 81.3442 73.3311 81.2861 73.7557C81.2473 74.161 81.0924 74.5277 80.8213 74.8558C80.5696 75.1839 80.221 75.4058 79.7756 75.5217C79.3496 75.6182 78.8364 75.5409 78.2361 75.29C77.7907 75.097 77.2872 74.9426 76.7256 74.8268C76.1834 74.6917 75.4862 74.6242 74.6342 74.6242C73.6078 74.6242 72.8139 74.8075 72.2523 75.1742C71.71 75.5409 71.4389 76.0138 71.4389 76.5928C71.4389 76.9788 71.5939 77.3069 71.9037 77.5771C72.2329 77.828 72.8235 78.05 73.6756 78.243L76.987 78.9667C78.8267 79.3721 80.1823 80.0476 81.0537 80.9933C81.9445 81.9197 82.3899 83.1259 82.3899 84.6121C82.3899 85.7701 82.1091 86.793 81.5475 87.6808C80.9859 88.5686 80.2016 89.2924 79.1946 89.8521C78.207 90.4118 77.0548 90.7785 75.738 90.9522L76.4061 90.2574V92.4287C76.4061 93.0077 76.2124 93.4902 75.8251 93.8762C75.4572 94.2622 74.9731 94.4552 74.3727 94.4552Z" fill="white"/>
<path d="M61.673 75.2767H40.0735C39.6622 75.2767 39.3287 75.6091 39.3287 76.0191V76.7614C39.3287 77.1713 39.6622 77.5037 40.0735 77.5037H61.673C62.0844 77.5037 62.4178 77.1713 62.4178 76.7614V76.0191C62.4178 75.6091 62.0844 75.2767 61.673 75.2767Z" fill="white"/>
<path d="M61.6731 85.6692H56.4594C56.0481 85.6692 55.7146 86.0015 55.7146 86.4115V87.1538C55.7146 87.5638 56.0481 87.8961 56.4594 87.8961H61.6731C62.0844 87.8961 62.4179 87.5638 62.4179 87.1538V86.4115C62.4179 86.0015 62.0844 85.6692 61.6731 85.6692Z" fill="white"/>
<path d="M61.673 80.4729H47.5217C47.1103 80.4729 46.7769 80.8052 46.7769 81.2152V81.9575C46.7769 82.3675 47.1103 82.6999 47.5217 82.6999H61.673C62.0844 82.6999 62.4179 82.3675 62.4179 81.9575V81.2152C62.4179 80.8052 62.0844 80.4729 61.673 80.4729Z" fill="white"/>
</svg>
